HIERARCHY
ROOT Hips
{
	OFFSET 0.000000 0.000000 0.000000 
	CHANNELS 6 Xposition Yposition Zposition Yrotation Zrotation Xrotation 
	JOINT Lumbar
	{
		OFFSET 0.000000 0.000000 0.000000 
		CHANNELS 3 Zrotation Xrotation Yrotation
		JOINT Neck
		{
			OFFSET 0.000000 0.445665 0.000000 
			CHANNELS 3 Zrotation Xrotation Yrotation
			End Site
			{
				OFFSET 0.000000 0.227535 0.000000 
			}
		}
		JOINT RightShoulder
		{
			OFFSET 0.019635 0.377685 0.194865 
			CHANNELS 3 Zrotation Xrotation Yrotation
			JOINT RightElbow
			{
				OFFSET 0.000000 -0.243375 0.000000 
				CHANNELS 2 Zrotation Yrotation
				JOINT RightWrist
				{
					OFFSET 0.000000 -0.264825 0.000000 
					CHANNELS 2 Zrotation Xrotation
					End Site
					{
						OFFSET 0.006600 -0.176220 0.000990 
					}
				}
			}
		}
		JOINT LeftShoulder
		{
			OFFSET 0.019635 0.377685 -0.194865 
			CHANNELS 3 Zrotation Xrotation Yrotation
			JOINT LeftElbow
			{
				OFFSET 0.000000 -0.243375 0.000000 
				CHANNELS 2 Zrotation Yrotation
				JOINT LeftWrist
				{
					OFFSET 0.000000 -0.264825 0.000000 
					CHANNELS 2 Zrotation Xrotation
					End Site
					{
						OFFSET 0.006600 -0.176220 -0.000990 
					}
				}
			}
		}
	}
	JOINT RightHip
	{
		OFFSET 0.052140 -0.069960 0.075570 
		CHANNELS 3 Zrotation Xrotation Yrotation
		JOINT RightKnee
		{
			OFFSET 0.000000 -0.402270 0.000000 
			CHANNELS 1 Zrotation
			JOINT RightAnkle
			{
				OFFSET 0.000000 -0.404085 0.000000 
				CHANNELS 3 Zrotation Xrotation Yrotation
				End Site
				{
					OFFSET 0.204105 -0.089430 0.008415 
				}
			}
		}
	}
	JOINT LeftHip
	{
		OFFSET 0.052140 -0.069960 -0.075570 
		CHANNELS 3 Zrotation Xrotation Yrotation
		JOINT LeftKnee
		{
			OFFSET 0.000000 -0.402270 0.000000 
			CHANNELS 1 Zrotation
			JOINT LeftAnkle
			{
				OFFSET 0.000000 -0.404085 0.000000 
				CHANNELS 3 Zrotation Xrotation Yrotation
				End Site
				{
					OFFSET 0.204105 -0.089430 -0.008415 
				}
			}
		}
	}
}
MOTION
Frames: 26
Frame Time: 0.02
0 0.95578 0 182.63113 0 -3.0812 0.71982 3.04044 -3.70433 -28.67416 2.28524 1.71588 -8.71215 -66.48625 -71.63629 22.39332 83.07761 -15.42067 -3.1984 3.96517 69.00168 56.52487 21.6524 -72.738 -24.78585 1.53892 -3.88105 1.82964 4.13396 -6.38296 -1.62066 -3.34923 -6.86042 -2.10545 5.73632 -0.79599 -7.50318 6.10816 2.2593 1.91436
-6e-05 0.95578 -3e-05 182.63946 0 -3.08144 0.72097 3.03727 -3.72444 -28.67632 2.31754 1.71934 -8.75272 -66.54461 -71.66065 22.39765 82.92127 -15.44991 -3.23413 3.94805 68.926 56.62108 21.67573 -72.61162 -24.75003 1.56477 -3.88707 1.83222 4.13206 -6.38113 -1.62042 -3.3492 -6.8598 -2.10617 5.73813 -0.8085 -7.50584 6.10865 2.28045 1.91512
-0.00013 0.95577 -5e-05 182.64771 0 -3.08168 0.72215 3.03409 -3.74443 -28.67857 2.34967 1.72278 -8.79291 -66.60269 -71.68481 22.40194 82.76613 -15.47897 -3.26953 3.93094 68.85068 56.71672 21.69879 -72.48633 -24.71426 1.59032 -3.89306 1.83479 4.1302 -6.3793 -1.62012 -3.34881 -6.85922 -2.10692 5.73995 -0.8209 -7.50847 6.10916 2.30145 1.91588
-0.00019 0.95577 -8e-05 182.6557 0 -3.08194 0.72339 3.0308 -3.76412 -28.68116 2.3815 1.7262 -8.83181 -66.66036 -71.70822 22.40616 82.61436 -15.50761 -3.30397 3.91388 68.77595 56.81091 21.72103 -72.36443 -24.6782 1.61468 -3.89904 1.83739 4.12854 -6.37738 -1.61959 -3.34673 -6.85881 -2.10775 5.74179 -0.83299 -7.51099 6.10973 2.32209 1.91664
-0.00025 0.95576 -0.0001 182.66506 0 -3.08211 0.72424 3.02806 -3.78538 -28.6819 2.41503 1.72973 -8.87737 -66.72035 -71.73536 22.41081 82.44483 -15.5385 -3.3435 3.89677 68.69795 56.91268 21.74766 -72.2249 -24.64346 1.64505 -3.90511 1.83988 4.12589 -6.37587 -1.62032 -3.35327 -6.85752 -2.10809 5.7435 -0.84673 -7.5141 6.10998 2.34469 1.9174
-0.00031 0.95575 -0.00013 182.67151 0 -3.08247 0.72595 3.02417 -3.8033 -28.68657 2.44485 1.73302 -8.90889 -66.7753 -71.75473 22.4145 82.31297 -15.56459 -3.37224 3.87964 68.62707 56.99838 21.76496 -72.12259 -24.60614 1.66285 -3.91098 1.8426 4.12529 -6.37353 -1.61837 -3.34178 -6.85805 -2.10949 5.74549 -0.85696 -7.51596 6.11089 2.3631 1.91815
-0.00037 0.95575 -0.00017 182.66972 0 -3.08341 0.73004 3.01691 -3.81235 -28.7026 2.46563 1.73594 -8.90038 -66.81804 -71.75126 22.41585 82.28578 -15.57769 -3.37063 3.86309 68.5736 57.04002 21.7562 -72.1257 -24.55895 1.6436 -3.91641 1.84611 4.1308 -6.36844 -1.60866 -3.27664 -6.86408 -2.11397 5.74836 -0.85729 -7.51422 6.11377 2.36999 1.91892
-0.00043 0.95575 -0.00021 182.66505 0 -3.08452 0.73501 3.00853 -3.81799 -28.72252 2.48249 1.73858 -8.87791 -66.85542 -71.74021 22.41617 82.29647 -15.58593 -3.35824 3.84641 68.52766 57.06544 21.73809 -72.16596 -24.5096 1.61202 -3.92162 1.84982 4.1383 -6.36258 -1.5963 -3.19391 -6.87184 -2.11952 5.75149 -0.8541 -7.51126 6.11729 2.37263 1.91969
-0.00049 0.95574 -0.00025 182.66183 0 -3.08552 0.73959 3.00078 -3.82499 -28.74036 2.50041 1.7412 -8.86262 -66.89421 -71.73355 22.41677 82.28932 -15.59622 -3.35115 3.82937 68.47967 57.09813 21.72443 -72.18744 -24.46298 1.58759 -3.92683 1.85335 4.14464 -6.35735 -1.58535 -3.12168 -6.87853 -2.12451 5.75443 -0.85263 -7.50897 6.12041 2.37717 1.92043
-0.00055 0.95574 -0.0003 182.65798 0 -3.08668 0.74413 2.99251 -3.8328 -28.75954 2.52136 1.74445 -8.84377 -66.93734 -71.72292 22.41816 82.28476 -15.60712 -3.34234 3.81407 68.42592 57.13119 21.70988 -72.21671 -24.409 1.55676 -3.93243 1.85726 4.1521 -6.35097 -1.57351 -3.03895 -6.8865 -2.1298 5.75768 -0.85064 -7.50617 6.12396 2.38186 1.92127
-0.00061 0.95574 -0.00034 182.65479 0 -3.08754 0.74897 2.98509 -3.83811 -28.7768 2.53509 1.74632 -8.82906 -66.97016 -71.71871 22.41768 82.28391 -15.61566 -3.33458 3.79514 68.38595 57.15968 21.69499 -72.23884 -24.36981 1.53617 -3.9372 1.86041 4.15762 -6.34678 -1.56292 -2.9738 -6.89213 -2.13473 5.76033 -0.84889 -7.50415 6.1268 2.38522 1.92193
-0.00067 0.95573 -0.00035 182.65404 0 -3.0875 0.75447 2.98012 -3.83739 -28.78826 2.52962 1.74435 -8.82884 -66.97583 -71.73429 22.4121 82.28301 -15.61823 -3.33228 3.766 68.38221 57.1791 21.68111 -72.22992 -24.37216 1.54839 -3.9395 1.86146 4.15808 -6.34916 -1.55638 -2.96259 -6.89143 -2.1384 5.76127 -0.8488 -7.50462 6.12723 2.386 1.92204
-0.00074 0.95573 -0.00036 182.65409 0 -3.08716 0.76025 2.97609 -3.83429 -28.79756 2.51707 1.74101 -8.83327 -66.97135 -71.75649 22.4047 82.28469 -15.61867 -3.33143 3.73327 68.39205 57.1945 21.66727 -72.21295 -24.3894 1.57109 -3.94101 1.86171 4.1564 -6.35372 -1.55121 -2.96948 -6.88824 -2.14169 5.76158 -0.84903 -7.50592 6.12698 2.38558 1.922
-0.0008 0.95572 -0.00038 182.65384 0 -3.08695 0.76589 2.97175 -3.83227 -28.80753 2.50788 1.73835 -8.83587 -66.97148 -71.77558 22.39828 82.28593 -15.62057 -3.32997 3.70232 68.39569 57.21206 21.65364 -72.20113 -24.39976 1.58796 -3.94302 1.86227 4.15518 -6.35709 -1.54548 -2.96734 -6.88581 -2.14516 5.76216 -0.84901 -7.50682 6.12723 2.38569 1.92209
-0.00087 0.95571 -0.00039 182.65323 0 -3.08675 0.77159 2.9669 -3.83008 -28.81893 2.49787 1.73542 -8.83704 -66.97133 -71.79506 22.39124 82.28561 -15.62037 -3.32791 3.67069 68.39981 57.22783 21.6387 -72.18432 -24.41069 1.60881 -3.94442 1.86304 4.15611 -6.36132 -1.53942 -2.96793 -6.88491 -2.1486 5.76284 -0.84931 -7.50775 6.12671 2.3857 1.92193
-0.00093 0.95571 -0.0004 182.6536 0 -3.08647 0.77725 2.96333 -3.82778 -28.82681 2.48803 1.73275 -8.84215 -66.96954 -71.81511 22.38501 82.28841 -15.62389 -3.32762 3.6397 68.40594 57.24634 21.62662 -72.17551 -24.42381 1.62415 -3.94693 1.86319 4.15209 -6.36424 -1.53437 -2.96744 -6.88031 -2.15202 5.76315 -0.84907 -7.50885 6.12759 2.38569 1.92224
-0.00101 0.95571 -0.00039 182.65659 0 -3.0861 0.78258 2.9632 -3.82549 -28.82522 2.4797 1.73105 -8.85982 -66.96475 -71.83773 22.38189 82.30112 -15.64007 -3.33164 3.61071 68.41505 57.27554 21.62251 -72.19064 -24.44101 1.62071 -3.95238 1.86186 4.13439 -6.36351 -1.53209 -2.959 -6.86524 -2.15531 5.76263 -0.84718 -7.51021 6.13276 2.38603 1.92399
-0.00109 0.95571 -0.00037 182.66054 0 -3.08567 0.78788 2.96431 -3.82326 -28.82018 2.47194 1.72967 -8.88082 -66.95887 -71.86024 22.37958 82.31643 -15.65978 -3.33747 3.58263 68.42548 57.3073 21.62132 -72.21403 -24.45965 1.61162 -3.95904 1.85995 4.11187 -6.36132 -1.53074 -2.94904 -6.84669 -2.15861 5.76177 -0.84476 -7.51173 6.13933 2.3864 1.9262
-0.00117 0.95571 -0.00036 182.66403 0 -3.08525 0.79331 2.96478 -3.82121 -28.81689 2.46438 1.7282 -8.89855 -66.95418 -71.8812 22.3766 82.32892 -15.6766 -3.3427 3.55454 68.43481 57.33656 21.61876 -72.23345 -24.4765 1.60586 -3.96538 1.8583 4.0919 -6.35947 -1.52877 -2.9402 -6.83031 -2.162 5.76105 -0.84266 -7.51319 6.14505 2.38673 1.92814
-0.00125 0.95571 -0.00035 182.66769 0 -3.08487 0.7983 2.96563 -3.81817 -28.8128 2.45459 1.72645 -8.92394 -66.94622 -71.90928 22.3748 82.34797 -15.69855 -3.34711 3.52455 68.44689 57.37135 21.61632 -72.25318 -24.4985 1.59727 -3.97073 1.85661 4.07032 -6.35898 -1.52768 -2.93017 -6.81138 -2.16498 5.76034 -0.84028 -7.5146 6.15158 2.38711 1.93037
-0.00134 0.95571 -0.00033 182.67118 0 -3.08441 0.80417 2.96595 -3.81726 -28.80953 2.44971 1.72538 -8.934 -66.94492 -71.92222 22.37082 82.35456 -15.71098 -3.35356 3.49887 68.45319 57.39524 21.61442 -72.27476 -24.51011 1.59304 -3.97841 1.85489 4.051 -6.3554 -1.52497 -2.92204 -6.79693 -2.16882 5.75955 -0.83831 -7.51615 6.15685 2.38742 1.93207
-0.00147 0.9557 -0.00032 182.6741 0 -3.08381 0.81261 2.96461 -3.822 -28.80976 2.45798 1.72619 -8.90192 -66.96246 -71.89514 22.3601 82.3205 -15.69369 -3.36578 3.48406 68.44453 57.38913 21.61265 -72.2958 -24.491 1.60279 -3.99264 1.85314 4.03878 -6.34256 -1.51732 -2.91936 -6.79615 -2.17495 5.75863 -0.83787 -7.51792 6.15763 2.38746 1.93242
-0.00161 0.95569 -0.0003 182.6768 0 -3.08313 0.8219 2.96267 -3.82894 -28.81084 2.47126 1.72767 -8.85415 -66.98675 -71.85251 22.34732 82.27477 -15.66719 -3.37988 3.47359 68.4296 57.37201 21.61157 -72.31914 -24.46158 1.61698 -4.00909 1.85138 4.0291 -6.32685 -1.50802 -2.9186 -6.79996 -2.18194 5.75764 -0.83781 -7.51985 6.1572 2.38744 1.93221
-0.00175 0.95569 -0.00029 182.67952 0 -3.08247 0.83073 2.96093 -3.83499 -28.81137 2.48243 1.72882 -8.81277 -67.00789 -71.81576 22.33573 82.23818 -15.64665 -3.39271 3.4619 68.41669 57.35934 21.61043 -72.34383 -24.43796 1.6287 -4.02426 1.84968 4.01846 -6.31313 -1.49962 -2.91698 -6.80137 -2.18857 5.75669 -0.83736 -7.52179 6.15776 2.38748 1.9321
-0.00188 0.95568 -0.00027 182.68259 0 -3.0819 0.83993 2.95955 -3.84051 -28.81265 2.49287 1.73012 -8.77433 -67.02934 -71.78382 22.32283 82.18586 -15.61882 -3.40728 3.44767 68.40764 57.34854 21.60778 -72.35866 -24.40984 1.64205 -4.04063 1.84775 4.00673 -6.29647 -1.49066 -2.91524 -6.80387 -2.19511 5.75572 -0.83772 -7.52334 6.15655 2.38739 1.93257
-0.00203 0.95567 -0.00026 182.68487 0 -3.08111 0.84847 2.95724 -3.84772 -28.81239 2.5061 1.73123 -8.72635 -67.05175 -71.73839 22.31248 82.163 -15.60382 -3.41873 3.43897 68.38866 57.3319 21.6091 -72.3945 -24.38844 1.65323 -4.05502 1.84629 3.99804 -6.28526 -1.48241 -2.91425 -6.80536 -2.202 5.75476 -0.83658 -7.5258 6.1587 2.38757 1.93179
